<svg xmlns="http://www.w3.org/2000/svg"  viewBox="0 0 100 100" width="100px" height="100px"><path fill="#c7ede6" d="M87.215,56.71C88.35,54.555,89,52.105,89,49.5c0-6.621-4.159-12.257-10.001-14.478 C78.999,35.015,79,35.008,79,35c0-11.598-9.402-21-21-21c-9.784,0-17.981,6.701-20.313,15.757C36.211,29.272,34.638,29,33,29 c-7.692,0-14.023,5.793-14.89,13.252C12.906,43.353,9,47.969,9,53.5C9,59.851,14.149,65,20.5,65c0.177,0,0.352-0.012,0.526-0.022 C21.022,65.153,21,65.324,21,65.5C21,76.822,30.178,86,41.5,86c6.437,0,12.175-2.972,15.934-7.614C59.612,80.611,62.64,82,66,82 c4.65,0,8.674-2.65,10.666-6.518C77.718,75.817,78.837,76,80,76c6.075,0,11-4.925,11-11C91,61.689,89.53,58.727,87.215,56.71z"/><path fill="#fdfcef" d="M60.125,29.5c0,0-3.64,0-6.125,0s-4.5-2.015-4.5-4.5c0-2.333,1.782-4.229,4.055-4.455 C53.533,20.364,53.5,20.187,53.5,20c0-2.485,2.015-4.5,4.5-4.5c1.438,0,2.703,0.686,3.527,1.736 C61.667,14.6,63.829,12.5,66.5,12.5c2.761,0,5,2.239,5,5c0,0.446-0.077,0.87-0.187,1.282c0.642-0.777,1.6-1.282,2.687-1.282 c1.781,0,3.234,1.335,3.455,3.055C77.636,20.533,77.813,20.5,78,20.5c2.485,0,4.5,2.015,4.5,4.5s-2.015,4.5-4.5,4.5s-9.5,0-9.5,0 h-5.375V30h-3V29.5z"/><path fill="#472b29" d="M66.5,12c3.033,0,5.5,2.467,5.5,5.5c0,0.016,0,0.031,0,0.047C72.602,17.192,73.29,17,74,17 c1.831,0,3.411,1.261,3.858,3.005C77.905,20.002,77.952,20,78,20c2.757,0,5,2.243,5,5s-2.243,5-5,5H63.125 c-0.276,0-0.5-0.224-0.5-0.5s0.224-0.5,0.5-0.5H78c2.206,0,4-1.794,4-4s-1.794-4-4-4c-0.117,0-0.23,0.017-0.343,0.032 l-0.141,0.019c-0.021,0.003-0.041,0.004-0.062,0.004c-0.246,0-0.462-0.185-0.495-0.437C76.768,19.125,75.496,18,74,18 c-0.885,0-1.723,0.401-2.301,1.1c-0.098,0.118-0.241,0.182-0.386,0.182c-0.078,0-0.156-0.018-0.228-0.056 c-0.209-0.107-0.314-0.346-0.254-0.573C70.946,18.218,71,17.852,71,17.5c0-2.481-2.019-4.5-4.5-4.5 c-2.381,0-4.347,1.872-4.474,4.263c-0.011,0.208-0.15,0.387-0.349,0.45c-0.05,0.016-0.101,0.024-0.152,0.024 c-0.15,0-0.296-0.069-0.392-0.192C60.362,16.563,59.221,16,58,16c-2.206,0-4,1.794-4,4c0,0.117,0.017,0.23,0.032,0.343 l0.019,0.141c0.016,0.134-0.022,0.268-0.106,0.373c-0.084,0.105-0.207,0.172-0.34,0.185C51.549,21.247,50,22.949,50,25 c0,2.206,1.794,4,4,4h6.125c0.276,0,0.5,0.224,0.5,0.5s-0.224,0.5-0.5,0.5H54c-2.757,0-5-2.243-5-5 c0-2.397,1.689-4.413,4.003-4.877C53.001,20.082,53,20.041,53,20c0-2.757,2.243-5,5-5c1.176,0,2.293,0.416,3.183,1.164 C61.781,13.76,63.945,12,66.5,12L66.5,12z"/><path fill="#472b29" d="M68,19c1.403,0,2.609,0.999,2.913,2.341C71.28,21.119,71.699,21,72.125,21 c1.202,0,2.198,0.897,2.353,2.068C74.681,23.022,74.874,23,75.063,23c1.529,0,2.811,1.2,2.918,2.732 C77.99,25.87,77.886,25.99,77.749,26c-0.006,0-0.012,0-0.018,0c-0.13,0-0.24-0.101-0.249-0.232 c-0.089-1.271-1.151-2.268-2.419-2.268c-0.229,0-0.47,0.042-0.738,0.127c-0.022,0.007-0.045,0.01-0.067,0.01 c-0.055,0-0.11-0.02-0.156-0.054C74.038,23.537,74,23.455,74,23.375c0-1.034-0.841-1.875-1.875-1.875 c-0.447,0-0.885,0.168-1.231,0.473c-0.047,0.041-0.106,0.063-0.165,0.063c-0.032,0-0.063-0.006-0.093-0.019 c-0.088-0.035-0.148-0.117-0.155-0.212C70.377,20.512,69.288,19.5,68,19.5c-0.208,0-0.425,0.034-0.682,0.107 c-0.023,0.007-0.047,0.01-0.07,0.01c-0.109,0-0.207-0.073-0.239-0.182c-0.038-0.133,0.039-0.271,0.172-0.309 C67.483,19.04,67.744,19,68,19L68,19z"/><path fill="#fff" d="M83.405,43H73.5c-0.276,0-0.5-0.224-0.5-0.5s0.224-0.5,0.5-0.5h9.905c0.276,0,0.5,0.224,0.5,0.5 S83.682,43,83.405,43z"/><path fill="#fff" d="M86.5,43h-1c-0.276,0-0.5-0.224-0.5-0.5s0.224-0.5,0.5-0.5h1c0.276,0,0.5,0.224,0.5,0.5 S86.777,43,86.5,43z"/><path fill="#fff" d="M91.491,45H82.5c-0.276,0-0.5-0.224-0.5-0.5s0.224-0.5,0.5-0.5h8.991c0.276,0,0.5,0.224,0.5,0.5 S91.767,45,91.491,45z"/><path fill="#fff" d="M80.5,45h-1c-0.276,0-0.5-0.224-0.5-0.5s0.224-0.5,0.5-0.5h1c0.276,0,0.5,0.224,0.5,0.5 S80.777,45,80.5,45z"/><path fill="#fff" d="M77.5,45h-2c-0.276,0-0.5-0.224-0.5-0.5s0.224-0.5,0.5-0.5h2c0.276,0,0.5,0.224,0.5,0.5 S77.777,45,77.5,45z"/><path fill="#fff" d="M83.5,47h-2c-0.276,0-0.5-0.224-0.5-0.5s0.224-0.5,0.5-0.5h2c0.276,0,0.5,0.224,0.5,0.5 S83.776,47,83.5,47z"/><path fill="#fff" d="M86.5,38c-0.177,0-0.823,0-1,0c-0.276,0-0.5,0.224-0.5,0.5c0,0.276,0.224,0.5,0.5,0.5 c0.177,0,0.823,0,1,0c0.276,0,0.5-0.224,0.5-0.5C87,38.224,86.776,38,86.5,38z"/><path fill="#fff" d="M86.5,40c-0.177,0-4.823,0-5,0c-0.276,0-0.5,0.224-0.5,0.5c0,0.276,0.224,0.5,0.5,0.5 c0.177,0,4.823,0,5,0c0.276,0,0.5-0.224,0.5-0.5C87,40.224,86.776,40,86.5,40z"/><path fill="#fff" d="M91.5,42c-0.177,0-2.823,0-3,0c-0.276,0-0.5,0.224-0.5,0.5c0,0.276,0.224,0.5,0.5,0.5 c0.177,0,2.823,0,3,0c0.276,0,0.5-0.224,0.5-0.5C92,42.224,91.776,42,91.5,42z"/><g><path fill="#fff" d="M30.5,76h-10c-0.276,0-0.5-0.224-0.5-0.5s0.224-0.5,0.5-0.5h10c0.276,0,0.5,0.224,0.5,0.5 S30.776,76,30.5,76z"/><path fill="#fff" d="M34.5,76h-2c-0.276,0-0.5-0.224-0.5-0.5s0.224-0.5,0.5-0.5h2c0.276,0,0.5,0.224,0.5,0.5 S34.776,76,34.5,76z"/><path fill="#fff" d="M39.5,78h-10c-0.276,0-0.5-0.224-0.5-0.5s0.224-0.5,0.5-0.5h10c0.276,0,0.5,0.224,0.5,0.5 S39.777,78,39.5,78z"/><path fill="#fff" d="M27.5,78h-1c-0.276,0-0.5-0.224-0.5-0.5s0.224-0.5,0.5-0.5h1c0.276,0,0.5,0.224,0.5,0.5 S27.776,78,27.5,78z"/><path fill="#fff" d="M24.47,78H22.5c-0.276,0-0.5-0.224-0.5-0.5s0.224-0.5,0.5-0.5h1.97c0.276,0,0.5,0.224,0.5,0.5 S24.746,78,24.47,78z"/><path fill="#fff" d="M33.5,74h-5c-0.276,0-0.5-0.224-0.5-0.5s0.224-0.5,0.5-0.5h5c0.276,0,0.5,0.224,0.5,0.5 S33.777,74,33.5,74z"/><path fill="#fff" d="M30.5,80h-2c-0.276,0-0.5-0.224-0.5-0.5s0.224-0.5,0.5-0.5h2c0.276,0,0.5,0.224,0.5,0.5 S30.776,80,30.5,80z"/></g><g><path fill="#8889b9" d="M69.441,54.517c-1.305-1.456-2.254-2.544-2.254-5.452V37.937c0.085-5.67-1.41-10.282-9.229-11.932 c-9.242-1.519-16.426,1.757-17.914,8.935c-0.145,0.698,0.351,1.373,1.064,1.463l5.704,0.714c0.63,0.079,1.204-0.332,1.358-0.942 c0.606-2.398,2.103-4.076,5.685-4.076c3.333,0.254,4.102,3.089,4.102,5.649v1.556c-5.706,0.143-18.95,0.682-19.142,11.709 c-0.214,12.228,12.391,10.197,13.801,9.816c0,0,2.845-0.5,6.492-4.161c0.778,1.541,1.885,2.864,3.14,4.092 c0.462,0.452,1.195,0.485,1.688,0.066l5.381-4.568C69.841,55.813,69.898,55.028,69.441,54.517z M57.349,50.917 c-1.474,4.982-8.872,6.177-9.133-0.286c-0.288-7.14,9.195-6.46,9.657-6.432C57.872,44.199,58.186,48.085,57.349,50.917z"/><path fill="#472b29" d="M49.079,61.891c-2.268,0-5.176-0.432-7.475-2.224c-2.383-1.858-3.558-4.774-3.489-8.668 c0.2-11.429,13.346-12.215,19.142-12.378v-0.874c0-4.688-2.601-4.885-3.455-4.951c-2.789,0.002-4.333,1.096-4.953,3.55 c-0.242,0.957-1.152,1.586-2.124,1.465l-5.705-0.714c-0.538-0.067-1.028-0.359-1.343-0.8c-0.311-0.434-0.427-0.981-0.32-1.499 c1.53-7.378,8.874-11.102,18.713-9.484c8.793,1.855,9.894,7.427,9.815,12.633l0,11.118c0,2.668,0.825,3.59,2.075,4.984l0,0 c0.348,0.387,0.52,0.886,0.484,1.405c-0.036,0.522-0.276,0.996-0.676,1.336l-5.381,4.568c-0.77,0.654-1.902,0.613-2.63-0.1 c-1.217-1.19-2.13-2.306-2.821-3.454c-3.44,3.195-6.083,3.691-6.201,3.712C52.735,61.519,51.183,61.891,49.079,61.891z M53.855,31.398c3.116,0.235,4.802,2.489,4.802,6.349v2.239l-0.683,0.017c-7.845,0.197-18.294,1.554-18.46,11.021 c-0.06,3.43,0.933,5.966,2.951,7.539c3.839,2.993,9.909,1.605,9.968,1.589c0.084-0.018,2.765-0.552,6.179-3.979l0.685-0.687 l0.437,0.866c0.658,1.304,1.612,2.545,3.004,3.906c0.205,0.2,0.531,0.215,0.745,0.033l5.381-4.568 c0.11-0.093,0.175-0.222,0.185-0.364c0.009-0.139-0.037-0.272-0.129-0.376l0,0c-1.305-1.457-2.433-2.715-2.433-5.919V37.938 c0.085-5.638-1.357-9.703-8.673-11.247c-9-1.478-15.72,1.813-17.084,8.392c-0.039,0.188,0.038,0.332,0.087,0.401 c0.09,0.126,0.225,0.206,0.378,0.225l5.705,0.714c0.266,0.036,0.523-0.142,0.593-0.419C48.274,32.905,50.356,31.398,53.855,31.398 z M52.071,55.771c-0.2,0-0.396-0.012-0.589-0.036c-2.367-0.294-3.849-2.192-3.965-5.076c-0.079-1.956,0.507-3.56,1.742-4.768 c2.62-2.561,7.276-2.479,8.639-2.392l0.605,0.038l0.067,0.605c0.013,0.164,0.315,4.049-0.55,6.972l-0.671-0.198l0.671,0.198 C57.125,54.137,54.41,55.771,52.071,55.771z M56.922,44.872c-1.662,0-4.872,0.249-6.685,2.021 c-0.953,0.932-1.386,2.145-1.323,3.71c0.088,2.174,1.086,3.538,2.739,3.744c1.831,0.228,4.274-1.094,5.023-3.628v0 c0.598-2.021,0.577-4.662,0.531-5.844C57.119,44.873,57.023,44.872,56.922,44.872z"/><path fill="#f1bc19" d="M26.354,61.201c-0.979-0.624-1.313,0.357-0.75,0.87C25.604,62.071,36.687,73,51,73 c13.468,0,20.683-3.911,24.976-7.16c0.439-0.332,0.499-0.999,0.134-1.421c-0.005-0.005-0.009-0.011-0.014-0.016 c-0.263-0.303-0.673-0.382-1.02-0.2c-2.249,1.184-11.235,5.396-23.826,4.515C35,67.58,26.354,61.201,26.354,61.201z"/><path fill="#472b29" d="M51,73.5c-14.352,0-25.635-10.962-25.747-11.073c-0.462-0.421-0.564-1.115-0.219-1.566 c0.259-0.339,0.832-0.564,1.589-0.081c0.009,0.006,0.019,0.012,0.027,0.019c0.086,0.063,8.739,6.308,24.634,7.42 c12.361,0.864,21.156-3.194,23.558-4.458c0.558-0.294,1.212-0.167,1.63,0.314c0.282,0.326,0.411,0.74,0.367,1.154 c-0.042,0.404-0.248,0.772-0.563,1.01C69.821,71.125,61.553,73.5,51,73.5z M25.798,61.5c0.03,0.015,0.046,0.113,0.143,0.201 C26.064,61.823,37.066,72.5,51,72.5c10.327,0,18.398-2.309,24.674-7.058c0.097-0.073,0.158-0.186,0.172-0.318 c0.015-0.139-0.027-0.277-0.114-0.377c-0.125-0.142-0.28-0.175-0.423-0.101c-2.46,1.296-11.465,5.457-24.094,4.571 c-16.026-1.122-24.606-7.21-25.143-7.602C25.921,61.521,25.833,61.503,25.798,61.5z"/><path fill="#f1bc19" d="M71.655,62.745c0,0,6.69-1.146,7.404,0.135s-0.52,4.921-1.624,7.28 c-0.39,0.809,0.216,1.034,0.649,0.674c0,0,3.906-3.056,3.915-9.589c0.001-0.472-0.338-0.869-0.786-0.951 c-2.664-0.485-6.716-0.569-9.84,1.328C70.504,62.164,70.79,62.88,71.655,62.745z"/><path fill="#472b29" d="M77.672,71.501c-0.196,0-0.384-0.059-0.539-0.179c-0.138-0.108-0.558-0.527-0.148-1.378 c1.415-3.022,2.119-5.956,1.638-6.819c-0.285-0.508-3.565-0.454-6.883,0.115c-0.002,0-0.005,0.001-0.007,0.001 c-0.636,0.097-1.158-0.14-1.331-0.608c-0.145-0.39-0.035-0.971,0.708-1.434c3.718-2.258,8.367-1.728,10.194-1.395 c0.694,0.126,1.197,0.733,1.196,1.443c-0.008,6.699-3.939,9.852-4.106,9.982C78.177,71.408,77.919,71.501,77.672,71.501z M76.413,61.766c1.458,0,2.716,0.211,3.083,0.871c1.039,1.862-1.22,6.899-1.584,7.686c0.689-0.628,3.581-3.591,3.588-9.078 c0-0.222-0.161-0.419-0.375-0.458c-1.715-0.312-6.071-0.814-9.492,1.263c-0.129,0.081-0.206,0.156-0.246,0.209 c0.042,0.005,0.105,0.006,0.188-0.007C72.719,62.056,74.703,61.766,76.413,61.766z M71.655,62.745h0.01H71.655z"/><path fill="#472b29" d="M66.688,55.438c-0.062,0-0.124-0.023-0.172-0.068c-1.418-1.34-2.266-3.51-2.266-5.807v-1.375 c0-0.138,0.112-0.25,0.25-0.25s0.25,0.112,0.25,0.25v1.375c0,2.545,1.089,4.48,2.109,5.443c0.1,0.095,0.104,0.253,0.01,0.353 C66.82,55.411,66.754,55.438,66.688,55.438z"/><path fill="#472b29" d="M64.5,45.75c-0.138,0-0.25-0.112-0.25-0.25v-8.313c0-0.138,0.112-0.25,0.25-0.25 s0.25,0.112,0.25,0.25V45.5C64.75,45.638,64.638,45.75,64.5,45.75z"/><g><path fill="#472b29" d="M64.331,35.06c-0.121,0-0.227-0.087-0.247-0.21c-0.462-2.876-1.934-4.574-4.921-5.677 c-0.13-0.048-0.196-0.192-0.148-0.321c0.048-0.129,0.193-0.195,0.321-0.148c3.137,1.158,4.753,3.03,5.242,6.067 c0.021,0.136-0.071,0.265-0.208,0.287C64.358,35.059,64.344,35.06,64.331,35.06z"/></g><g><path fill="#472b29" d="M47.125,55.75c-0.074,0-0.148-0.033-0.197-0.097c-1.695-2.185-2.188-5.139-1.316-7.904 c0.042-0.132,0.182-0.205,0.313-0.163s0.205,0.182,0.163,0.314c-0.822,2.608-0.36,5.392,1.234,7.447 c0.085,0.109,0.065,0.266-0.044,0.351C47.233,55.733,47.179,55.75,47.125,55.75z"/></g><g><path fill="#472b29" d="M46.943,45.835c-0.05,0-0.1-0.015-0.144-0.045c-0.113-0.079-0.141-0.235-0.061-0.348 c0.208-0.296,0.436-0.576,0.678-0.831c0.591-0.622,1.259-1.094,1.985-1.404c0.128-0.054,0.274,0.005,0.328,0.132 c0.054,0.127-0.005,0.274-0.132,0.328c-0.664,0.283-1.275,0.716-1.819,1.288c-0.225,0.237-0.437,0.497-0.631,0.773 C47.1,45.798,47.022,45.835,46.943,45.835z"/></g></g><g><path fill="#fdfcef" d="M24.5,54.5c0,0-1.567,0-3.5,0s-3.5-1.567-3.5-3.5c0-1.781,1.335-3.234,3.055-3.455 C20.527,47.366,20.5,47.187,20.5,47c0-1.933,1.567-3.5,3.5-3.5c1.032,0,1.95,0.455,2.59,1.165c0.384-1.808,1.987-3.165,3.91-3.165 c2.209,0,4,1.791,4,4c0,0.191-0.03,0.374-0.056,0.558C34.872,45.714,35.408,45.5,36,45.5c1.228,0,2.245,0.887,2.455,2.055 C38.634,47.527,38.813,47.5,39,47.5c1.933,0,3.5,1.567,3.5,3.5s-1.567,3.5-3.5,3.5s-7.5,0-7.5,0V55h-7V54.5z"/><path fill="#472b29" d="M22.75,50c0.138,0,0.25-0.112,0.25-0.25c0-1.223-0.995-2.218-2.218-2.218 c-0.034,0.009-0.737-0.001-1.244,0.136c-0.133,0.036-0.212,0.173-0.176,0.306c0.036,0.134,0.173,0.213,0.306,0.176 c0.444-0.12,1.1-0.12,1.113-0.118c0.948,0,1.719,0.771,1.719,1.718C22.5,49.888,22.612,50,22.75,50z"/><circle cx="29.5" cy="54.5" r=".5" fill="#472b29"/><path fill="#472b29" d="M21,55h3.5c0.276,0,0.5-0.224,0.5-0.5S24.776,54,24.5,54H21c-1.654,0-3-1.346-3-3 c0-1.496,1.125-2.768,2.618-2.959c0.134-0.018,0.255-0.088,0.336-0.196s0.115-0.244,0.094-0.377C21.025,47.314,21,47.16,21,47 c0-1.654,1.346-3,3-3c0.85,0,1.638,0.355,2.219,1c0.125,0.139,0.321,0.198,0.5,0.148c0.182-0.049,0.321-0.195,0.36-0.379 C27.42,43.165,28.859,42,30.5,42c1.93,0,3.5,1.57,3.5,3.5c0,0.143-0.021,0.28-0.041,0.418c-0.029,0.203,0.063,0.438,0.242,0.54 c0.179,0.102,0.396,0.118,0.556-0.01C35.122,46.155,35.551,46,36,46c0.966,0,1.792,0.691,1.963,1.644 c0.048,0.267,0.296,0.446,0.569,0.405C38.686,48.025,38.84,48,39,48c1.654,0,3,1.346,3,3s-1.346,3-3,3h-7.5 c-0.276,0-0.5,0.224-0.5,0.5s0.224,0.5,0.5,0.5H39c2.206,0,4-1.794,4-4s-1.794-4-4-4c-0.059,0-0.116,0.002-0.174,0.006 C38.412,45.82,37.289,45,36,45c-0.349,0-0.689,0.061-1.011,0.18C34.824,42.847,32.874,41,30.5,41 c-1.831,0-3.466,1.127-4.153,2.774C25.667,43.276,24.845,43,24,43c-2.206,0-4,1.794-4,4c0,0.048,0.001,0.095,0.004,0.142 C18.261,47.59,17,49.169,17,51C17,53.206,18.794,55,21,55z"/><path fill="#472b29" d="M26.5,54c0.159,0,0.841,0,1,0c0.276,0,0.5,0.224,0.5,0.5c0,0.276-0.224,0.5-0.5,0.5 c-0.159,0-0.841,0-1,0c-0.276,0-0.5-0.224-0.5-0.5C26,54.224,26.224,54,26.5,54z"/></g></svg>